<svg width="22" height="22" viewBox="0 0 22 22" fill="none" xmlns="http://www.w3.org/2000/svg">
<path d="M11 7.33317H3.66671C3.18048 7.33317 2.71416 7.52632 2.37034 7.87014C2.02653 8.21396 1.83337 8.68027 1.83337 9.1665V12.8332C1.83337 13.3194 2.02653 13.7857 2.37034 14.1295C2.71416 14.4733 3.18048 14.6665 3.66671 14.6665H4.58337V18.3332C4.58337 18.5763 4.67995 18.8094 4.85186 18.9814C5.02377 19.1533 5.25693 19.2498 5.50004 19.2498H7.33337C7.57649 19.2498 7.80965 19.1533 7.98155 18.9814C8.15346 18.8094 8.25004 18.5763 8.25004 18.3332V14.6665H11L15.5834 18.3332V3.6665L11 7.33317ZM19.7084 10.9998C19.7084 12.5673 18.8284 13.9882 17.4167 14.6665V7.33317C18.8192 8.02067 19.7084 9.4415 19.7084 10.9998Z" fill="currentColor"/>
</svg>
