<svg width="24" height="25" viewBox="0 0 24 25" fill="none" xmlns="http://www.w3.org/2000/svg">
<path fill-rule="evenodd" clip-rule="evenodd" d="M7 2.20605C7.55229 2.20605 8 2.65377 8 3.20605V4.20605H16V3.20605C16 2.65377 16.4477 2.20605 17 2.20605C17.5523 2.20605 18 2.65377 18 3.20605V4.20608C18.459 4.20636 18.8593 4.20919 19.195 4.23662C19.5904 4.26893 19.9836 4.34024 20.362 4.53304C20.9265 4.82066 21.3854 5.2796 21.673 5.84408C21.8658 6.22246 21.9371 6.61568 21.9694 7.01103C22 7.38559 22 7.84035 22 8.36749V18.0446C22 18.5718 22 19.0265 21.9694 19.4011C21.9371 19.7964 21.8658 20.1896 21.673 20.568C21.3854 21.1325 20.9265 21.5915 20.362 21.8791C19.9836 22.0719 19.5904 22.1432 19.195 22.1755C18.8205 22.2061 18.3657 22.2061 17.8386 22.2061H6.16144C5.6343 22.2061 5.17954 22.2061 4.80497 22.1755C4.40963 22.1432 4.01641 22.0719 3.63803 21.8791C3.07354 21.5915 2.6146 21.1325 2.32698 20.568C2.13419 20.1896 2.06287 19.7964 2.03057 19.4011C1.99997 19.0265 1.99998 18.5717 2 18.0446V8.36751C1.99998 7.84036 1.99997 7.3856 2.03057 7.01103C2.06287 6.61568 2.13419 6.22246 2.32698 5.84408C2.6146 5.2796 3.07354 4.82066 3.63803 4.53304C4.01641 4.34024 4.40963 4.26893 4.80497 4.23662C5.14075 4.20919 5.54097 4.20636 6 4.20608V3.20605C6 2.65377 6.44772 2.20605 7 2.20605ZM6.2 6.20605C5.62345 6.20605 5.25118 6.20683 4.96784 6.22998C4.69617 6.25218 4.59546 6.28986 4.54601 6.31505C4.35785 6.41092 4.20487 6.5639 4.109 6.75206C4.0838 6.80151 4.04612 6.90223 4.02393 7.17389C4.00078 7.45723 4 7.8295 4 8.40605V9.20605H20V8.40605C20 7.8295 19.9992 7.45723 19.9761 7.17389C19.9539 6.90223 19.9162 6.80151 19.891 6.75206C19.7951 6.5639 19.6422 6.41092 19.454 6.31505C19.4045 6.28986 19.3038 6.25218 19.0322 6.22998C18.7488 6.20683 18.3766 6.20605 17.8 6.20605H6.2ZM20 11.2061H4V18.0061C4 18.5826 4.00078 18.9549 4.02393 19.2382C4.04612 19.5099 4.0838 19.6106 4.109 19.66C4.20487 19.8482 4.35785 20.0012 4.54601 20.0971C4.59546 20.1223 4.69617 20.1599 4.96784 20.1821C5.25117 20.2053 5.62345 20.2061 6.2 20.2061H17.8C18.3766 20.2061 18.7488 20.2053 19.0322 20.1821C19.3038 20.1599 19.4045 20.1223 19.454 20.0971C19.6422 20.0012 19.7951 19.8482 19.891 19.66C19.9162 19.6106 19.9539 19.5099 19.9761 19.2382C19.9992 18.9549 20 18.5826 20 18.0061V11.2061Z" fill="#374957" fill-opacity="0.4"/>
</svg>
