<svg width="22" height="22" viewBox="0 0 22 22" fill="none" xmlns="http://www.w3.org/2000/svg">
<path d="M10.0834 13.7502H11.9167V15.5835H10.0834V13.7502ZM10.0834 6.41683H11.9167V11.9168H10.0834V6.41683ZM11 1.8335C5.93087 1.8335 1.83337 5.9585 1.83337 11.0002C1.83337 13.4313 2.79915 15.7629 4.51823 17.482C5.36943 18.3332 6.37996 19.0084 7.49211 19.4691C8.60426 19.9297 9.79626 20.1668 11 20.1668C13.4312 20.1668 15.7628 19.2011 17.4819 17.482C19.2009 15.7629 20.1667 13.4313 20.1667 11.0002C20.1667 9.79638 19.9296 8.60438 19.4689 7.49223C19.0083 6.38008 18.3331 5.36955 17.4819 4.51835C16.6306 3.66715 15.6201 2.99194 14.508 2.53127C13.3958 2.0706 12.2038 1.8335 11 1.8335ZM11 18.3335C9.05512 18.3335 7.18986 17.5609 5.81459 16.1856C4.43932 14.8103 3.66671 12.9451 3.66671 11.0002C3.66671 9.05524 4.43932 7.18998 5.81459 5.81471C7.18986 4.43945 9.05512 3.66683 11 3.66683C12.945 3.66683 14.8102 4.43945 16.1855 5.81471C17.5608 7.18998 18.3334 9.05524 18.3334 11.0002C18.3334 12.9451 17.5608 14.8103 16.1855 16.1856C14.8102 17.5609 12.945 18.3335 11 18.3335Z" fill="currentColor"/>
</svg>
