<svg width="22" height="22" viewBox="0 0 22 22" fill="none" xmlns="http://www.w3.org/2000/svg">
<path d="M13.5667 7.33317L14.6667 8.43317L8.43337 14.6665L7.33337 13.5665L13.5667 7.33317ZM3.66671 3.6665H18.3334C19.3509 3.6665 20.1667 4.48234 20.1667 5.49984V9.1665C19.6805 9.1665 19.2142 9.35966 18.8703 9.70347C18.5265 10.0473 18.3334 10.5136 18.3334 10.9998C18.3334 11.4861 18.5265 11.9524 18.8703 12.2962C19.2142 12.64 19.6805 12.8332 20.1667 12.8332V16.4998C20.1667 17.5173 19.3509 18.3332 18.3334 18.3332H3.66671C3.18048 18.3332 2.71416 18.14 2.37034 17.7962C2.02653 17.4524 1.83337 16.9861 1.83337 16.4998V12.8332C2.85087 12.8332 3.66671 12.0173 3.66671 10.9998C3.66671 10.5136 3.47355 10.0473 3.12974 9.70347C2.78592 9.35966 2.3196 9.1665 1.83337 9.1665V5.49984C1.83337 5.01361 2.02653 4.54729 2.37034 4.20347C2.71416 3.85966 3.18048 3.6665 3.66671 3.6665ZM3.66671 5.49984V7.82817C4.22375 8.14937 4.68637 8.61161 5.00802 9.16838C5.32968 9.72516 5.49903 10.3568 5.49903 10.9998C5.49903 11.6428 5.32968 12.2745 5.00802 12.8313C4.68637 13.3881 4.22375 13.8503 3.66671 14.1715V16.4998H18.3334V14.1715C17.7763 13.8503 17.3137 13.3881 16.9921 12.8313C16.6704 12.2745 16.5011 11.6428 16.5011 10.9998C16.5011 10.3568 16.6704 9.72516 16.9921 9.16838C17.3137 8.61161 17.7763 8.14937 18.3334 7.82817V5.49984H3.66671ZM8.70837 7.33317C9.46921 7.33317 10.0834 7.94734 10.0834 8.70817C10.0834 9.469 9.46921 10.0832 8.70837 10.0832C7.94754 10.0832 7.33337 9.469 7.33337 8.70817C7.33337 7.94734 7.94754 7.33317 8.70837 7.33317ZM13.2917 11.9165C14.0525 11.9165 14.6667 12.5307 14.6667 13.2915C14.6667 14.0523 14.0525 14.6665 13.2917 14.6665C12.5309 14.6665 11.9167 14.0523 11.9167 13.2915C11.9167 12.5307 12.5309 11.9165 13.2917 11.9165Z" fill="currentColor"/>
</svg>
