<svg width="20" height="20" viewBox="0 0 20 20" fill="none" xmlns="http://www.w3.org/2000/svg">
<path d="M1.66663 4.16667C1.66663 3.72464 1.84222 3.30072 2.15478 2.98816C2.46734 2.67559 2.89127 2.5 3.33329 2.5H8.33329V17.5H3.33329C2.89127 17.5 2.46734 17.3244 2.15478 17.0118C1.84222 16.6993 1.66663 16.2754 1.66663 15.8333V4.16667ZM11.6666 2.5H16.6666C17.1087 2.5 17.5326 2.67559 17.8451 2.98816C18.1577 3.30072 18.3333 3.72464 18.3333 4.16667V8.33333H11.6666V2.5ZM11.6666 11.6667H18.3333V15.8333C18.3333 16.2754 18.1577 16.6993 17.8451 17.0118C17.5326 17.3244 17.1087 17.5 16.6666 17.5H11.6666V11.6667Z" stroke="currentColor" stroke-width="2" stroke-linecap="round" stroke-linejoin="round"/>
</svg>
