<svg width="16" height="16" viewBox="0 0 16 16" fill="none" xmlns="http://www.w3.org/2000/svg">
<path fill-rule="evenodd" clip-rule="evenodd" d="M8 5.33333C6.52724 5.33333 5.33333 6.52724 5.33333 8C5.33333 9.47276 6.52724 10.6667 8 10.6667C9.47276 10.6667 10.6667 9.47276 10.6667 8C10.6667 6.52724 9.47276 5.33333 8 5.33333ZM6.66667 8C6.66667 7.26362 7.26362 6.66667 8 6.66667C8.73638 6.66667 9.33333 7.26362 9.33333 8C9.33333 8.73638 8.73638 9.33333 8 9.33333C7.26362 9.33333 6.66667 8.73638 6.66667 8Z" fill="currentColor"/>
<path fill-rule="evenodd" clip-rule="evenodd" d="M15.9294 7.70139C16.0232 7.88907 16.0235 8.11046 15.9296 8.29814L15.3333 8C15.9296 8.29814 15.9292 8.29896 15.9291 8.2992L15.9283 8.30075L15.926 8.30531L15.9184 8.32012C15.9121 8.33248 15.9031 8.34979 15.8915 8.37171C15.8683 8.41553 15.8347 8.47785 15.7907 8.55601C15.7028 8.71224 15.5734 8.93232 15.4038 9.19502C15.0653 9.71913 14.5621 10.4196 13.903 11.1226C12.597 12.5157 10.5997 14 8 14C5.40033 14 3.40299 12.5157 2.09698 11.1226C1.43789 10.4196 0.93471 9.71913 0.596224 9.19502C0.426567 8.93232 0.297195 8.71224 0.209314 8.55601C0.165349 8.47785 0.131693 8.41553 0.108502 8.37171C0.0969045 8.34979 0.0879168 8.33248 0.0815586 8.32012L0.0739933 8.30531L0.0716926 8.30075L0.0703819 8.29814L0.666327 8.00017C0.0744824 8.29609 0.0702916 8.29789 0.0703819 8.29814C-0.0234606 8.11046 -0.0234606 7.88954 0.0703819 7.70186L0.666327 8.00017C0.0700425 7.70203 0.0707909 7.70104 0.0709134 7.7008L0.0716926 7.69925L0.0739933 7.69469L0.0815586 7.67988C0.0879168 7.66752 0.0969045 7.65021 0.108502 7.62829C0.131693 7.58447 0.165349 7.52215 0.209314 7.44399C0.297195 7.28776 0.426567 7.06768 0.596224 6.80498C0.93471 6.28088 1.43789 5.5804 2.09698 4.87737C3.40299 3.48429 5.40033 2 8 2C10.5997 2 12.597 3.48429 13.903 4.87737C14.5621 5.5804 15.0653 6.28088 15.4038 6.80498C15.5734 7.06768 15.7028 7.28776 15.7907 7.44399C15.8347 7.52215 15.8683 7.58447 15.8915 7.62829C15.9031 7.65021 15.9121 7.66752 15.9184 7.67988L15.926 7.69469L15.9283 7.69925L15.9294 7.70139ZM1.71628 8.47165C1.59662 8.28637 1.50002 8.12591 1.42716 8C1.50002 7.87409 1.59662 7.71363 1.71628 7.52835C2.02362 7.05246 2.47878 6.4196 3.06969 5.78929C4.26368 4.51571 5.933 3.33333 8 3.33333C10.067 3.33333 11.7363 4.51571 12.9303 5.78929C13.5212 6.4196 13.9764 7.05246 14.2837 7.52835C14.4034 7.71363 14.5 7.87409 14.5728 8C14.5 8.12591 14.4034 8.28637 14.2837 8.47165C13.9764 8.94754 13.5212 9.5804 12.9303 10.2107C11.7363 11.4843 10.067 12.6667 8 12.6667C5.933 12.6667 4.26368 11.4843 3.06969 10.2107C2.47878 9.5804 2.02362 8.94754 1.71628 8.47165ZM15.3333 8C15.9296 7.70186 15.9295 7.70163 15.9294 7.70139L15.3333 8Z" fill="currentColor"/>
</svg>
