<svg width="28" height="28" viewBox="0 0 28 28" fill="none" xmlns="http://www.w3.org/2000/svg">
<path fill-rule="evenodd" clip-rule="evenodd" d="M3.5 7.00065C3.5 6.35632 4.02233 5.83398 4.66667 5.83398H23.3333C23.9777 5.83398 24.5 6.35632 24.5 7.00065C24.5 7.64498 23.9777 8.16732 23.3333 8.16732H4.66667C4.02233 8.16732 3.5 7.64498 3.5 7.00065ZM7 14.0007C7 13.3563 7.52233 12.834 8.16667 12.834H19.8333C20.4777 12.834 21 13.3563 21 14.0007C21 14.645 20.4777 15.1673 19.8333 15.1673H8.16667C7.52233 15.1673 7 14.645 7 14.0007ZM9.33333 21.0007C9.33333 20.3563 9.85567 19.834 10.5 19.834H17.5C18.1443 19.834 18.6667 20.3563 18.6667 21.0007C18.6667 21.645 18.1443 22.1673 17.5 22.1673H10.5C9.85567 22.1673 9.33333 21.645 9.33333 21.0007Z" fill="currentColor"/>
</svg>
