<svg width="22" height="22" viewBox="0 0 22 22" fill="none" xmlns="http://www.w3.org/2000/svg">
<path d="M10.0834 10.0651C10.0834 9.82201 10.18 9.58885 10.3519 9.41694C10.5238 9.24503 10.7569 9.14846 11 9.14846C11.2432 9.14846 11.4763 9.24503 11.6482 9.41694C11.8201 9.58885 11.9167 9.82201 11.9167 10.0651V15.5651C11.9167 15.8082 11.8201 16.0414 11.6482 16.2133C11.4763 16.3852 11.2432 16.4818 11 16.4818C10.7569 16.4818 10.5238 16.3852 10.3519 16.2133C10.18 16.0414 10.0834 15.8082 10.0834 15.5651V10.0651ZM11 5.54688C10.7569 5.54688 10.5238 5.64345 10.3519 5.81536C10.18 5.98727 10.0834 6.22043 10.0834 6.46354C10.0834 6.70666 10.18 6.93981 10.3519 7.11172C10.5238 7.28363 10.7569 7.38021 11 7.38021C11.2432 7.38021 11.4763 7.28363 11.6482 7.11172C11.8201 6.93981 11.9167 6.70666 11.9167 6.46354C11.9167 6.22043 11.8201 5.98727 11.6482 5.81536C11.4763 5.64345 11.2432 5.54688 11 5.54688Z" fill="currentColor"/>
<path fill-rule="evenodd" clip-rule="evenodd" d="M11 1.8335C5.93729 1.8335 1.83337 5.93741 1.83337 11.0002C1.83337 16.0629 5.93729 20.1668 11 20.1668C16.0628 20.1668 20.1667 16.0629 20.1667 11.0002C20.1667 5.93741 16.0628 1.8335 11 1.8335ZM3.66671 11.0002C3.66671 12.9451 4.43932 14.8103 5.81459 16.1856C7.18986 17.5609 9.05512 18.3335 11 18.3335C12.945 18.3335 14.8102 17.5609 16.1855 16.1856C17.5608 14.8103 18.3334 12.9451 18.3334 11.0002C18.3334 9.05524 17.5608 7.18998 16.1855 5.81471C14.8102 4.43945 12.945 3.66683 11 3.66683C9.05512 3.66683 7.18986 4.43945 5.81459 5.81471C4.43932 7.18998 3.66671 9.05524 3.66671 11.0002Z" fill="currentColor"/>
</svg>
