<svg width="20" height="20" viewBox="0 0 20 20" fill="none" xmlns="http://www.w3.org/2000/svg">
<path d="M10 10H12.5C13.8261 10 15.0979 9.47322 16.0355 8.53553C16.9732 7.59785 17.5 6.32608 17.5 5V4.16667H15C13.6739 4.16667 12.4021 4.69345 11.4645 5.63113C10.5268 6.56881 10 7.84058 10 9.16667H7.5C6.17392 9.16667 4.90215 8.63988 3.96447 7.7022C3.02678 6.76452 2.5 5.49275 2.5 4.16667V2.5H5C6.32608 2.5 7.59785 3.02678 8.53553 3.96447C9.47322 4.90215 10 6.17392 10 7.5V12.5M5.83333 12.5H14.1667V15.8333C14.1667 16.2754 13.9911 16.6993 13.6785 17.0118C13.366 17.3244 12.942 17.5 12.5 17.5H7.5C7.05797 17.5 6.63405 17.3244 6.32149 17.0118C6.00893 16.6993 5.83333 16.2754 5.83333 15.8333V12.5Z" stroke="currentColor" stroke-width="2" stroke-linecap="round" stroke-linejoin="round"/>
</svg>
