<svg width="22" height="22" viewBox="0 0 22 22" fill="none" xmlns="http://www.w3.org/2000/svg">
<path d="M13.75 10.9973C13.75 11.1797 13.6776 11.3545 13.5486 11.4835C13.4197 11.6124 13.2448 11.6848 13.0625 11.6848C12.8802 11.6848 12.7053 11.6124 12.5764 11.4835C12.4474 11.3545 12.375 11.1797 12.375 10.9973C12.375 10.815 12.4474 10.6401 12.5764 10.5112C12.7053 10.3823 12.8802 10.3098 13.0625 10.3098C13.2448 10.3098 13.4197 10.3823 13.5486 10.5112C13.6776 10.6401 13.75 10.815 13.75 10.9973ZM10.4472 2.76382C10.3475 2.74389 10.2447 2.74633 10.146 2.77095C10.0474 2.79557 9.95541 2.84177 9.87676 2.90621C9.79812 2.97065 9.73474 3.05173 9.69121 3.14362C9.64767 3.2355 9.62506 3.3359 9.625 3.43757V18.5584C9.62506 18.6601 9.64767 18.7605 9.69121 18.8524C9.73474 18.9443 9.79812 19.0254 9.87676 19.0898C9.95541 19.1543 10.0474 19.2004 10.146 19.2251C10.2447 19.2497 10.3475 19.2521 10.4472 19.2322L17.3222 17.8572C17.478 17.8261 17.6182 17.7419 17.719 17.6191C17.8198 17.4963 17.8749 17.3423 17.875 17.1834V4.81257C17.8749 4.6537 17.8198 4.49976 17.719 4.37693C17.6182 4.2541 17.478 4.16996 17.3222 4.13882L10.4472 2.76382ZM11 17.7197V4.27632L16.5 5.37632V16.6197L11 17.7197ZM8.25 17.8709V16.4959H5.5V5.50007H8.25V4.12507H4.8125C4.63016 4.12507 4.4553 4.19751 4.32636 4.32644C4.19743 4.45537 4.125 4.63024 4.125 4.81257V17.1834C4.125 17.3658 4.19743 17.5407 4.32636 17.6696C4.4553 17.7985 4.63016 17.8709 4.8125 17.8709H8.25Z" fill="currentColor"/>
</svg>
