<svg width="14" height="15" viewBox="0 0 14 15" fill="none" xmlns="http://www.w3.org/2000/svg">
<path fill-rule="evenodd" clip-rule="evenodd" d="M11.4639 2.87051C11.2735 2.92855 11.0155 3.03237 10.6225 3.19143L3.30597 6.15289C2.90728 6.31426 2.64468 6.42113 2.46511 6.51261C2.39725 6.54719 2.35622 6.57259 2.33309 6.58819C2.35686 6.60279 2.39894 6.62641 2.46822 6.65806C2.65153 6.74178 2.91846 6.83733 3.32369 6.98151L5.73914 7.84098C5.74957 7.84469 5.7603 7.84847 5.77129 7.85234C5.89027 7.89428 6.04004 7.94706 6.17112 8.03828C6.28469 8.11731 6.38329 8.21591 6.46232 8.32948C6.55354 8.46056 6.60632 8.61033 6.64825 8.72931C6.65213 8.7403 6.65591 8.75103 6.65962 8.76145L7.51909 11.1769C7.66327 11.5821 7.75882 11.8491 7.84254 12.0324C7.87418 12.1017 7.89781 12.1437 7.91241 12.1675C7.92801 12.1444 7.95341 12.1033 7.98799 12.0355C8.07947 11.8559 8.18634 11.5933 8.34771 11.1946L11.3092 3.87809C11.4682 3.48512 11.572 3.22714 11.6301 3.03666C11.6586 2.94326 11.6674 2.89142 11.6703 2.86848C11.6609 2.85278 11.6478 2.83965 11.6321 2.83026C11.6092 2.83324 11.5573 2.84204 11.4639 2.87051ZM11.1238 1.75451C11.3589 1.68287 11.6684 1.61133 11.9739 1.71169C12.3597 1.8384 12.6622 2.14094 12.7889 2.52667C12.8893 2.83218 12.8177 3.14168 12.7461 3.37676C12.671 3.62312 12.5468 3.92985 12.4009 4.29033L9.41892 11.6576C9.27057 12.0242 9.14488 12.3347 9.02752 12.5651C8.91887 12.7784 8.75313 13.0622 8.45925 13.2084C8.09904 13.3876 7.6738 13.3785 7.32158 13.1841C7.03421 13.0255 6.88076 12.7348 6.78132 12.5171C6.67393 12.2819 6.56163 11.9663 6.4291 11.5938L5.56046 9.15256C5.53123 9.07043 5.51636 9.02915 5.50416 8.99971L5.5032 8.9974L5.50089 8.99644C5.47144 8.98424 5.43017 8.96936 5.34804 8.94014L2.90684 8.07151C2.53433 7.93898 2.21868 7.82667 1.98353 7.71928C1.76582 7.61984 1.47513 7.46638 1.3165 7.17902C1.12206 6.8268 1.11297 6.40156 1.29218 6.04135C1.43838 5.74747 1.72225 5.58173 1.93551 5.47308C2.16585 5.35573 2.47641 5.23004 2.84291 5.0817L10.2103 2.09968C10.5707 1.95375 10.8775 1.82959 11.1238 1.75451Z" fill="currentColor"/>
</svg>
