<svg width="12" height="13" viewBox="0 0 12 13" fill="none" xmlns="http://www.w3.org/2000/svg">
<g clip-path="url(#clip0_240_18239)">
<path d="M6 6.72803C6.59334 6.72803 7.17336 6.55208 7.66671 6.22244C8.16006 5.89279 8.54458 5.42426 8.77164 4.87608C8.9987 4.3279 9.05811 3.7247 8.94236 3.14276C8.8266 2.56081 8.54088 2.02627 8.12132 1.60671C7.70176 1.18715 7.16721 0.901429 6.58527 0.785673C6.00333 0.669917 5.40013 0.729327 4.85195 0.95639C4.30377 1.18345 3.83524 1.56797 3.50559 2.06132C3.17595 2.55467 3 3.13468 3 3.72803C3.00079 4.52343 3.31712 5.28604 3.87956 5.84847C4.44199 6.41091 5.20459 6.72723 6 6.72803ZM6 1.72803C6.39556 1.72803 6.78224 1.84533 7.11114 2.06509C7.44004 2.28485 7.69638 2.59721 7.84776 2.96266C7.99914 3.32811 8.03874 3.73025 7.96157 4.11821C7.8844 4.50617 7.69392 4.86254 7.41421 5.14224C7.13451 5.42195 6.77814 5.61243 6.39018 5.6896C6.00222 5.76677 5.60009 5.72716 5.23463 5.57579C4.86918 5.42441 4.55682 5.16807 4.33706 4.83917C4.1173 4.51027 4 4.12359 4 3.72803C4 3.1976 4.21071 2.68889 4.58579 2.31382C4.96086 1.93874 5.46957 1.72803 6 1.72803Z" fill="currentColor"/>
<path d="M6 7.72852C4.80693 7.72984 3.66311 8.20437 2.81948 9.048C1.97585 9.89162 1.50132 11.0354 1.5 12.2285C1.5 12.3611 1.55268 12.4883 1.64645 12.5821C1.74021 12.6758 1.86739 12.7285 2 12.7285C2.13261 12.7285 2.25979 12.6758 2.35355 12.5821C2.44732 12.4883 2.5 12.3611 2.5 12.2285C2.5 11.3003 2.86875 10.41 3.52513 9.75364C4.1815 9.09726 5.07174 8.72852 6 8.72852C6.92826 8.72852 7.8185 9.09726 8.47487 9.75364C9.13125 10.41 9.5 11.3003 9.5 12.2285C9.5 12.3611 9.55268 12.4883 9.64645 12.5821C9.74021 12.6758 9.86739 12.7285 10 12.7285C10.1326 12.7285 10.2598 12.6758 10.3536 12.5821C10.4473 12.4883 10.5 12.3611 10.5 12.2285C10.4987 11.0354 10.0241 9.89162 9.18052 9.048C8.33689 8.20437 7.19307 7.72984 6 7.72852Z" fill="currentColor"/>
</g>
<defs>
<clipPath id="clip0_240_18239">
<rect width="12" height="12" fill="white" transform="translate(0 0.728027)"/>
</clipPath>
</defs>
</svg>
