<svg width="22" height="22" viewBox="0 0 22 22" fill="none" xmlns="http://www.w3.org/2000/svg">
<path d="M18.3333 15.5835C18.8196 15.5835 19.2859 15.3903 19.6297 15.0465C19.9735 14.7027 20.1667 14.2364 20.1667 13.7502V3.66683C20.1667 3.1806 19.9735 2.71428 19.6297 2.37047C19.2859 2.02665 18.8196 1.8335 18.3333 1.8335H8.67167C8.9925 2.39266 9.16667 3.02516 9.16667 3.66683H18.3333V13.7502H10.0833V15.5835M13.75 6.41683V8.25016H8.25V20.1668H6.41667V14.6668H4.58333V20.1668H2.75V12.8335H1.375V8.25016C1.375 7.76393 1.56815 7.29762 1.91197 6.9538C2.25579 6.60998 2.7221 6.41683 3.20833 6.41683H13.75ZM7.33333 3.66683C7.33333 4.15306 7.14018 4.61938 6.79636 4.96319C6.45255 5.30701 5.98623 5.50016 5.5 5.50016C5.01377 5.50016 4.54745 5.30701 4.20364 4.96319C3.85982 4.61938 3.66667 4.15306 3.66667 3.66683C3.66667 3.1806 3.85982 2.71428 4.20364 2.37047C4.54745 2.02665 5.01377 1.8335 5.5 1.8335C5.98623 1.8335 6.45255 2.02665 6.79636 2.37047C7.14018 2.71428 7.33333 3.1806 7.33333 3.66683Z" fill="currentColor"/>
</svg>
