<svg width="22" height="22" viewBox="0 0 22 22" fill="none" xmlns="http://www.w3.org/2000/svg">
<path d="M11 11.6875V17.1875H4.125V11.6875H11ZM11 10.3125H4.125C3.76033 10.3125 3.41059 10.4574 3.15273 10.7152C2.89487 10.9731 2.75 11.3228 2.75 11.6875V17.1875C2.75 17.5522 2.89487 17.9019 3.15273 18.1598C3.41059 18.4176 3.76033 18.5625 4.125 18.5625H11C11.3647 18.5625 11.7144 18.4176 11.9723 18.1598C12.2301 17.9019 12.375 17.5522 12.375 17.1875V11.6875C12.375 11.3228 12.2301 10.9731 11.9723 10.7152C11.7144 10.4574 11.3647 10.3125 11 10.3125ZM18.5625 4.125V7.5625H11.6875V4.125H18.5625ZM18.5625 2.75H11.6875C11.3228 2.75 10.9731 2.89487 10.7152 3.15273C10.4574 3.41059 10.3125 3.76033 10.3125 4.125V7.5625C10.3125 7.92717 10.4574 8.27691 10.7152 8.53477C10.9731 8.79263 11.3228 8.9375 11.6875 8.9375H18.5625C18.9272 8.9375 19.2769 8.79263 19.5348 8.53477C19.7926 8.27691 19.9375 7.92717 19.9375 7.5625V4.125C19.9375 3.76033 19.7926 3.41059 19.5348 3.15273C19.2769 2.89487 18.9272 2.75 18.5625 2.75ZM18.5625 11.6875V15.125H15.125V11.6875H18.5625ZM18.5625 10.3125H15.125C14.7603 10.3125 14.4106 10.4574 14.1527 10.7152C13.8949 10.9731 13.75 11.3228 13.75 11.6875V15.125C13.75 15.4897 13.8949 15.8394 14.1527 16.0973C14.4106 16.3551 14.7603 16.5 15.125 16.5H18.5625C18.9272 16.5 19.2769 16.3551 19.5348 16.0973C19.7926 15.8394 19.9375 15.4897 19.9375 15.125V11.6875C19.9375 11.3228 19.7926 10.9731 19.5348 10.7152C19.2769 10.4574 18.9272 10.3125 18.5625 10.3125ZM7.5625 4.125V7.5625H4.125V4.125H7.5625ZM7.5625 2.75H4.125C3.76033 2.75 3.41059 2.89487 3.15273 3.15273C2.89487 3.41059 2.75 3.76033 2.75 4.125V7.5625C2.75 7.92717 2.89487 8.27691 3.15273 8.53477C3.41059 8.79263 3.76033 8.9375 4.125 8.9375H7.5625C7.92717 8.9375 8.27691 8.79263 8.53477 8.53477C8.79263 8.27691 8.9375 7.92717 8.9375 7.5625V4.125C8.9375 3.76033 8.79263 3.41059 8.53477 3.15273C8.27691 2.89487 7.92717 2.75 7.5625 2.75Z" fill="currentColor"/>
</svg>
